# xmcd CD database file
#
# Track frame offsets:
#	150
#	26060
#	44705
#	65936
#	88475
#	108455
#	142600
#	160488
#	186320
#	215465
#	236915
#	258850
#
# Disc length: 3831 seconds
#
# Revision: 2
# Processed by: cddbd v1.5PL3 Copyright (c) Steve Scherf et al.
# Submitted via: CDex 1.51
#
DISCID=ba0ef50c
DTITLE=Mel Brown and The Homewreckers - Neck Bones and Cavier
DYEAR=2000
DGENRE=Blues
TTITLE0=Woman Wanted
TTITLE1=I Ain't Drunk
TTITLE2=You're the One
TTITLE3=I Want to Hold Onto You Baby
TTITLE4=Love That Girl
TTITLE5=Summer Magic
TTITLE6=Get Out of My Life, Woman
TTITLE7=I Believe To My Soul
TTITLE8=Goin' Down Slow
TTITLE9=Lord, Have Mercy
TTITLE10=Blues On the Green
TTITLE11=I'm In the Mood
EXTD=YEAR: 2000
EXTT0=
EXTT1=
EXTT2=
EXTT3=
EXTT4=
EXTT5=
EXTT6=
EXTT7=
EXTT8=
EXTT9=
EXTT10=
EXTT11=
PLAYORDER=
